0
SECTION
2
HEADER
9
$INSUNITS
70
4
9
$ACADVER
1
AC1014
9
$HANDSEED
5
FFFF
0
ENDSEC
0
SECTION
2
TABLES
0
TABLE
2
VPORT
5
8
100
AcDbSymbolTable
0
ENDTAB
0
TABLE
2
LTYPE
5
5
100
AcDbSymbolTable
0
LTYPE
5
14
100
AcDbSymbolTableRecord
100
AcDbLinetypeTableRecord
2
BYBLOCK
70
0
0
LTYPE
5
15
100
AcDbSymbolTableRecord
100
AcDbLinetypeTableRecord
2
BYLAYER
70
0
0
ENDTAB
0
TABLE
2
LAYER
5
2
100
AcDbSymbolTable
70
2
0
LAYER
5
50
100
AcDbSymbolTableRecord
100
AcDbLayerTableRecord
2
0
70
0
6
CONTINUOUS
0
ENDTAB
0
TABLE
2
STYLE
5
3
100
AcDbSymbolTable
70
1
0
STYLE
5
11
100
AcDbSymbolTableRecord
100
AcDbTextStyleTableRecord
2
STANDARD
70
0
0
ENDTAB
0
TABLE
2
VIEW
5
6
100
AcDbSymbolTable
70
0
0
ENDTAB
0
TABLE
2
UCS
5
7
100
AcDbSymbolTable
70
0
0
ENDTAB
0
TABLE
2
APPID
5
9
100
AcDbSymbolTable
70
2
0
APPID
5
12
100
AcDbSymbolTableRecord
100
AcDbRegAppTableRecord
2
ACAD
70
0
0
ENDTAB
0
TABLE
2
DIMSTYLE
5
A
100
AcDbSymbolTable
70
1
0
ENDTAB
0
TABLE
2
BLOCK_RECORD
5
1
100
AcDbSymbolTable
70
1
0
BLOCK_RECORD
5
1F
100
AcDbSymbolTableRecord
100
AcDbBlockTableRecord
2
*MODEL_SPACE
0
BLOCK_RECORD
5
1B
100
AcDbSymbolTableRecord
100
AcDbBlockTableRecord
2
*PAPER_SPACE
0
ENDTAB
0
ENDSEC
0
SECTION
2
BLOCKS
0
BLOCK
5
20
100
AcDbEntity
100
AcDbBlockBegin
2
*MODEL_SPACE
0
ENDBLK
5
21
100
AcDbEntity
100
AcDbBlockEnd
0
BLOCK
5
1C
100
AcDbEntity
100
AcDbBlockBegin
2
*PAPER_SPACE
0
ENDBLK
5
1D
100
AcDbEntity
100
AcDbBlockEnd
0
ENDSEC
0
SECTION
2
ENTITIES
0
LWPOLYLINE
5
100
100
AcDbEntity
8
0
100
AcDbPolyline
90
8
70
1
43
0.0
10
35.57500000000001
20
-3.0249999999999999
42
0.41421356237309537
10
35.075000000000003
20
-2.5250000000000017
10
22.074999999999999
20
-2.5250000000000004
42
0.41421356237308787
10
21.575000000000006
20
-3.0249999999999999
10
21.575000000000006
20
-16.024999999999999
42
0.41421356237310281
10
22.074999999999999
20
-16.524999999999999
10
35.075000000000003
20
-16.525000000000002
42
0.41421356237309631
10
35.57500000000001
20
-16.024999999999999
0
LWPOLYLINE
5
101
100
AcDbEntity
8
0
100
AcDbPolyline
90
8
70
1
43
0.0
10
117.32500000000002
20
-2.5250000000000021
42
0.41421356237312074
10
116.82500000000003
20
-3.0249999999999999
10
116.82500000000002
20
-16.024999999999999
42
0.41421356237305862
10
117.32500000000002
20
-16.525000000000006
10
130.32499999999999
20
-16.525000000000006
42
0.41421356237309503
10
130.82499999999999
20
-16.024999999999999
10
130.82499999999999
20
-3.0249999999999999
42
0.41421356237309437
10
130.32499999999999
20
-2.5249999999999928
0
LWPOLYLINE
5
102
100
AcDbEntity
8
0
100
AcDbPolyline
90
8
70
1
43
0.0
10
168.42500000000001
20
-16.524999999999984
42
0.41421356237312235
10
168.92500000000001
20
-16.024999999999999
10
168.92500000000001
20
-3.0249999999999999
42
0.41421356237310153
10
168.42500000000001
20
-2.5249999999999928
10
155.42500000000001
20
-2.5249999999999915
42
0.41421356237307488
10
154.92500000000001
20
-3.0249999999999999
10
154.92500000000001
20
-16.024999999999999
42
0.41421356237307555
10
155.42500000000001
20
-16.525000000000006
0
LWPOLYLINE
5
103
100
AcDbEntity
8
0
100
AcDbPolyline
90
8
70
1
43
0.0
10
149.375
20
-16.524999999999988
42
0.41421356237310414
10
149.875
20
-16.024999999999999
10
149.875
20
-3.0249999999999999
42
0.41421356237309437
10
149.375
20
-2.5249999999999928
10
136.375
20
-2.5249999999999915
42
0.41421356237307488
10
135.875
20
-3.0249999999999999
10
135.875
20
-16.024999999999999
42
0.41421356237307555
10
136.375
20
-16.525000000000006
0
LWPOLYLINE
5
104
100
AcDbEntity
8
0
100
AcDbPolyline
90
8
70
1
43
0.0
10
3.0249999999999999
20
-2.5249999999999999
42
0.41421356237309437
10
2.5249999999999999
20
-3.0249999999999999
10
2.5249999999999995
20
-16.024999999999999
42
0.4142135623730937
10
3.0249999999999999
20
-16.525000000000002
10
16.024999999999999
20
-16.525000000000002
42
0.41421356237308982
10
16.525000000000002
20
-16.024999999999999
10
16.525000000000002
20
-3.0249999999999999
42
0.41421356237309342
10
16.024999999999999
20
-2.5249999999999995
0
LWPOLYLINE
5
105
100
AcDbEntity
8
0
100
AcDbPolyline
90
8
70
1
43
0.0
10
54.125000000000014
20
-2.5250000000000017
10
41.125000000000007
20
-2.5249999999999972
42
0.41421356237309764
10
40.625
20
-3.0249999999999999
10
40.625
20
-16.024999999999999
42
0.41421356237307422
10
41.125
20
-16.524999999999999
10
54.125000000000014
20
-16.525000000000002
42
0.41421356237310281
10
54.625
20
-16.024999999999999
10
54.625
20
-3.0249999999999999
42
0.41421356237310902
0
LWPOLYLINE
5
106
100
AcDbEntity
8
0
100
AcDbPolyline
90
8
70
1
43
0.0
10
78.724999999999994
20
-3.0249999999999999
10
78.724999999999994
20
-16.024999999999999
42
0.41421356237307422
10
79.22499999999998
20
-16.524999999999999
10
92.224999999999994
20
-16.524999999999995
42
0.41421356237309764
10
92.725000000000023
20
-16.024999999999999
10
92.724999999999994
20
-3.0249999999999999
42
0.41421356237310281
10
92.224999999999994
20
-2.5249999999999928
10
79.22499999999998
20
-2.5249999999999972
42
0.41421356237309243
0
LWPOLYLINE
5
107
100
AcDbEntity
8
0
100
AcDbPolyline
90
8
70
1
43
0.0
10
111.77500000000002
20
-16.024999999999999
10
111.77500000000002
20
-3.0249999999999999
42
0.41421356237309437
10
111.27500000000001
20
-2.5249999999999928
10
98.275000000000006
20
-2.5250000000000021
42
0.41421356237312074
10
97.77500000000002
20
-3.0249999999999999
10
97.775000000000034
20
-16.024999999999999
42
0.41421356237307944
10
98.275000000000006
20
-16.525000000000006
10
111.27500000000001
20
-16.525000000000006
42
0.41421356237309503
0
LWPOLYLINE
5
108
100
AcDbEntity
8
0
100
AcDbPolyline
90
8
70
1
43
0.0
10
187.47499999999999
20
-2.5249999999999928
10
174.47500000000005
20
-2.5250000000000146
42
0.41421356237312396
10
173.97500000000005
20
-3.0249999999999999
10
173.97500000000002
20
-16.024999999999999
42
0.41421356237312362
10
174.47500000000005
20
-16.525000000000006
10
187.47499999999999
20
-16.525000000000013
42
0.41421356237309892
10
187.97499999999999
20
-16.024999999999999
10
187.97499999999999
20
-3.0249999999999999
42
0.41421356237314544
0
LWPOLYLINE
5
109
100
AcDbEntity
8
0
100
AcDbPolyline
90
8
70
1
43
0.0
10
193.52500000000006
20
-2.5249999999999999
10
206.52500000000003
20
-2.5250000000000155
42
-0.41421356237312335
10
207.02500000000003
20
-3.0249999999999999
10
207.02499999999998
20
-16.024999999999999
42
-0.41421356237308332
10
206.52500000000003
20
-16.525000000000002
10
193.52500000000006
20
-16.524999999999984
42
-0.41421356237312235
10
193.02500000000006
20
-16.024999999999999
10
193.02500000000003
20
-3.0249999999999999
42
-0.41421356237312101
0
LWPOLYLINE
5
110
100
AcDbEntity
8
0
100
AcDbPolyline
90
8
70
1
43
0.0
10
73.674999999999983
20
-16.024999999999999
10
73.674999999999983
20
-3.0249999999999999
42
0.41421356237309698
10
73.174999999999983
20
-2.5250000000000017
10
60.174999999999997
20
-2.524999999999999
42
0.41421356237309664
10
59.675000000000004
20
-3.0249999999999999
10
59.675000000000011
20
-16.024999999999999
42
0.41421356237309764
10
60.174999999999997
20
-16.524999999999999
10
73.174999999999983
20
-16.525000000000002
42
0.41421356237309764
0
LWPOLYLINE
5
111
100
AcDbEntity
8
0
100
AcDbPolyline
90
8
70
1
43
0.0
10
97.487500000000011
20
-35.075000000000003
10
97.487500000000011
20
-22.074999999999999
42
0.41421356237309503
10
96.987500000000011
20
-21.574999999999992
10
83.987499999999983
20
-21.575000000000006
42
0.41421356237309764
10
83.487499999999983
20
-22.074999999999999
10
83.487500000000026
20
-35.075000000000003
42
0.41421356237306384
10
83.987499999999983
20
-35.57500000000001
10
96.987500000000011
20
-35.575000000000003
42
0.41421356237309243
0
LWPOLYLINE
5
112
100
AcDbEntity
8
0
100
AcDbPolyline
90
8
70
1
43
0.0
10
241.15000000000006
20
-2.5249999999999946
42
0.41421356237307322
10
240.65000000000001
20
-3.0249999999999999
10
240.64999999999998
20
-16.024999999999999
42
0.41421356237310542
10
241.15000000000006
20
-16.525000000000006
10
254.15000000000006
20
-16.525000000000006
42
0.41421356237307422
10
254.65000000000003
20
-16.024999999999999
10
254.65000000000001
20
-3.0249999999999999
42
0.41421356237308493
10
254.15000000000006
20
-2.5249999999999928
0
LWPOLYLINE
5
113
100
AcDbEntity
8
0
100
AcDbPolyline
90
8
70
1
43
0.0
10
212.07499999999999
20
-3.0249999999999999
10
212.07499999999996
20
-16.024999999999999
42
0.41421356237312362
10
212.57499999999999
20
-16.525000000000006
10
225.57500000000002
20
-16.525000000000013
42
0.41421356237309892
10
226.07500000000002
20
-16.024999999999999
10
226.07500000000002
20
-3.0249999999999999
42
0.41421356237314544
10
225.57500000000002
20
-2.5249999999999928
10
212.57499999999999
20
-2.5250000000000146
42
0.41421356237312396
0
LWPOLYLINE
5
114
100
AcDbEntity
8
0
100
AcDbPolyline
90
8
70
1
43
0.0
10
59.387500000000003
20
-22.074999999999999
42
0.41421356237307944
10
58.887500000000017
20
-21.575000000000006
10
45.88750000000001
20
-21.575000000000006
42
0.41421356237310281
10
45.387500000000003
20
-22.074999999999999
10
45.387500000000003
20
-35.075000000000003
42
0.41421356237308982
10
45.887500000000003
20
-35.57500000000001
10
58.887500000000017
20
-35.57500000000001
42
0.41421356237309503
10
59.387500000000003
20
-35.075000000000003
0
LWPOLYLINE
5
115
100
AcDbEntity
8
0
100
AcDbPolyline
90
8
70
1
43
0.0
10
39.837499999999999
20
-21.575000000000003
10
26.837499999999999
20
-21.575000000000006
42
0.41421356237310281
10
26.337499999999999
20
-22.074999999999999
10
26.337499999999995
20
-35.075000000000003
42
0.41421356237309243
10
26.837499999999999
20
-35.57500000000001
10
39.837499999999999
20
-35.575000000000003
42
0.4142135623730846
10
40.337499999999991
20
-35.075000000000003
10
40.337500000000013
20
-22.074999999999999
42
0.41421356237310281
0
LWPOLYLINE
5
116
100
AcDbEntity
8
0
100
AcDbPolyline
90
8
70
1
43
0.0
10
78.4375
20
-35.075000000000003
10
78.4375
20
-22.074999999999999
42
0.41421356237308982
10
77.9375
20
-21.575000000000006
10
64.9375
20
-21.575000000000006
42
0.41421356237309243
10
64.4375
20
-22.074999999999999
10
64.437500000000014
20
-35.075000000000003
42
0.41421356237309243
10
64.9375
20
-35.57500000000001
10
77.9375
20
-35.57500000000001
42
0.41421356237308982
0
LWPOLYLINE
5
117
100
AcDbEntity
8
0
100
AcDbPolyline
90
8
70
1
43
0.0
10
116.53750000000001
20
-35.075000000000003
42
-0.41421356237307161
10
116.03749999999999
20
-35.57500000000001
10
103.03750000000001
20
-35.575000000000003
42
-0.41421356237309243
10
102.53749999999999
20
-35.075000000000003
10
102.53749999999999
20
-22.074999999999999
42
-0.41421356237308721
10
103.03750000000001
20
-21.575000000000006
10
116.03750000000002
20
-21.575000000000003
42
-0.41421356237307944
10
116.53750000000001
20
-22.074999999999999
0
LWPOLYLINE
5
118
100
AcDbEntity
8
0
100
AcDbPolyline
90
8
70
1
43
0.0
10
4.9062499999999964
20
-35.075000000000003
42
0.41421356237309309
10
5.4062499999999991
20
-35.57500000000001
10
18.40625
20
-35.57500000000001
42
0.41421356237309631
10
18.90625
20
-35.075000000000003
10
18.906250000000004
20
-22.074999999999999
42
0.41421356237309243
10
18.40625
20
-21.575000000000003
10
5.4062499999999991
20
-21.575000000000006
42
0.4142135623731022
10
4.9062500000000018
20
-22.074999999999999
0
LWPOLYLINE
5
119
100
AcDbEntity
8
0
100
AcDbPolyline
90
8
70
1
43
0.0
10
135.58750000000001
20
-35.075000000000003
10
135.58750000000001
20
-22.074999999999999
42
0.41421356237307422
10
135.08750000000001
20
-21.574999999999992
10
122.08750000000002
20
-21.575000000000003
42
0.41421356237311063
10
121.58750000000001
20
-22.074999999999999
10
121.58750000000001
20
-35.075000000000003
42
0.41421356237309243
10
122.08750000000002
20
-35.57500000000001
10
135.08750000000001
20
-35.575000000000003
42
0.41421356237307161
0
LWPOLYLINE
5
120
100
AcDbEntity
8
0
100
AcDbPolyline
90
8
70
1
43
0.0
10
204.93125000000006
20
-22.074999999999999
10
204.93125000000006
20
-35.075000000000003
42
0.4142135623730846
10
205.43125000000003
20
-35.57500000000001
10
218.43125000000001
20
-35.575000000000017
42
0.41421356237310025
10
218.93125000000001
20
-35.075000000000003
10
218.93125000000001
20
-22.074999999999999
42
0.41421356237310281
10
218.43125000000001
20
-21.574999999999992
10
205.43125000000003
20
-21.574999999999989
42
0.41421356237307683
0
LWPOLYLINE
5
121
100
AcDbEntity
8
0
100
AcDbPolyline
90
8
70
1
43
0.0
10
23.668749999999999
20
-54.125000000000014
10
23.668749999999999
20
-41.125
42
0.41421356237310542
10
23.168749999999999
20
-40.625
10
10.168749999999999
20
-40.625
42
0.41421356237307555
10
9.6687499999999993
20
-41.125
10
9.6687500000000028
20
-54.125000000000014
42
0.41421356237310936
10
10.168749999999999
20
-54.625
10
23.168749999999999
20
-54.625
42
0.41421356237311063
0
LWPOLYLINE
5
122
100
AcDbEntity
8
0
100
AcDbPolyline
90
8
70
1
43
0.0
10
49.362500000000004
20
-40.625
10
36.362499999999997
20
-40.625
42
0.4142135623730846
10
35.862500000000011
20
-41.125
10
35.862500000000011
20
-54.125000000000014
42
0.4142135623730846
10
36.362499999999997
20
-54.625
10
49.362500000000004
20
-54.625
42
0.41421356237311063
10
49.862499999999997
20
-54.125000000000014
10
49.862499999999997
20
-41.125
42
0.41421356237309503
0
LWPOLYLINE
5
123
100
AcDbEntity
8
0
100
AcDbPolyline
90
8
70
1
43
0.0
10
154.13749999999999
20
-21.575000000000003
42
-0.41421356237308982
10
154.63750000000005
20
-22.074999999999999
10
154.63749999999999
20
-35.075000000000003
42
-0.41421356237306123
10
154.13749999999999
20
-35.57500000000001
10
141.13749999999999
20
-35.575000000000003
42
-0.41421356237309243
10
140.63749999999999
20
-35.075000000000003
10
140.63749999999999
20
-22.074999999999999
42
-0.41421356237308721
10
141.13749999999999
20
-21.575000000000006
0
LWPOLYLINE
5
124
100
AcDbEntity
8
0
100
AcDbPolyline
90
8
70
1
43
0.0
10
178.73750000000001
20
-22.074999999999999
10
178.73750000000001
20
-35.075000000000003
42
0.41421356237314444
10
179.23750000000001
20
-35.57500000000001
10
192.23750000000001
20
-35.575000000000031
42
0.4142135623730846
10
192.73750000000007
20
-35.075000000000003
10
192.73750000000007
20
-22.074999999999999
42
0.41421356237307422
10
192.23750000000001
20
-21.574999999999992
10
179.23750000000001
20
-21.575000000000017
42
0.41421356237312362
0
LWPOLYLINE
5
125
100
AcDbEntity
8
0
100
AcDbPolyline
90
8
70
1
43
0.0
10
241.15000000000006
20
-35.57500000000001
10
254.15000000000006
20
-35.575000000000038
42
0.41421356237305079
10
254.65000000000003
20
-35.075000000000003
10
254.65000000000001
20
-22.074999999999999
42
0.41421356237308721
10
254.15000000000006
20
-21.574999999999992
10
241.15000000000006
20
-21.574999999999989
42
0.41421356237307683
10
240.65000000000001
20
-22.074999999999999
10
240.65000000000003
20
-35.075000000000003
42
0.4142135623730846
0
LWPOLYLINE
5
126
100
AcDbEntity
8
0
100
AcDbPolyline
90
8
70
1
43
0.0
10
159.68750000001387
20
-22.074999999999999
10
159.6875
20
-35.075000000000003
42
0.41421356237309243
10
160.1875
20
-35.57500000000001
10
173.1875
20
-35.575000000000038
42
0.41421356237215334
10
173.68749999998403
20
-35.075000000000003
10
173.68749999998118
20
-22.074999999999999
42
0.41421356230634532
10
173.1875
20
-21.575000000231167
10
160.1875
20
-21.575000000153004
42
0.41421356233175594
0
LWPOLYLINE
5
127
100
AcDbEntity
8
0
100
AcDbPolyline
90
8
70
1
43
0.0
10
145.11250000000001
20
-41.125
10
145.11250000000001
20
-54.125000000000014
42
-0.4142135623730846
10
144.61250000000001
20
-54.625
10
131.61250000000001
20
-54.625
42
-0.41421356237310542
10
131.11250000000001
20
-54.125000000000014
10
131.11250000000001
20
-41.125
42
-0.41421356237308982
10
131.61250000000001
20
-40.625
10
144.61250000000001
20
-40.625
42
-0.414213562373069
0
LWPOLYLINE
5
128
100
AcDbEntity
8
0
100
AcDbPolyline
90
8
70
1
43
0.0
10
112.0625
20
-41.125
10
112.0625
20
-54.125000000000014
42
0.41421356237310025
10
112.56250000000001
20
-54.625000000000021
10
125.5625
20
-54.625
42
0.41421356237306384
10
126.06250000000001
20
-54.125000000000014
10
126.06250000000001
20
-41.125
42
0.41421356237307422
10
125.5625
20
-40.624999999999993
10
112.56250000000001
20
-40.625
42
0.41421356237308982
0
LWPOLYLINE
5
129
100
AcDbEntity
8
0
100
AcDbPolyline
90
8
70
1
43
0.0
10
93.012500000000017
20
-41.125
42
-0.41421356237305862
10
93.512500000000003
20
-40.625
10
106.51250000000003
20
-40.624999999999993
42
-0.4142135623730846
10
107.01250000000002
20
-41.125
10
107.01250000000002
20
-54.125000000000014
42
-0.41421356237311585
10
106.51250000000003
20
-54.625
10
93.512500000000003
20
-54.624999999999993
42
-0.41421356237311063
10
93.012500000000017
20
-54.125000000000014
0
LWPOLYLINE
5
130
100
AcDbEntity
8
0
100
AcDbPolyline
90
8
70
1
43
0.0
10
164.16250000000005
20
-54.125000000000014
42
-0.41421356237316787
10
163.66250000000005
20
-54.625
10
150.66249999999999
20
-54.625
42
-0.41421356237310542
10
150.16249999999999
20
-54.125000000000014
10
150.16249999999999
20
-41.125
42
-0.41421356237308982
10
150.66249999999999
20
-40.625
10
163.66250000000002
20
-40.624999999999972
42
-0.41421356237310542
10
164.16250000000005
20
-41.125
0
LWPOLYLINE
5
131
100
AcDbEntity
8
0
100
AcDbPolyline
90
8
70
1
43
0.0
10
190.64375000000001
20
-41.125
10
190.64374999999998
20
-54.125000000000014
42
0.41421356237312623
10
191.14375000000001
20
-54.625000000000021
10
204.14375000000007
20
-54.625000000000014
42
0.414213562373069
10
204.64375000000004
20
-54.125000000000014
10
204.64375000000004
20
-41.125
42
0.4142135623730846
10
204.14375000000007
20
-40.624999999999993
10
191.14375000000001
20
-40.625000000000014
42
0.41421356237312101
0
LWPOLYLINE
5
132
100
AcDbEntity
8
0
100
AcDbPolyline
90
8
70
1
43
0.0
10
55.412500000000016
20
-40.625
10
68.412499999999994
20
-40.625
42
-0.41421356237309503
10
68.912499999999994
20
-41.125
10
68.912500000000009
20
-54.125000000000014
42
-0.41421356237307422
10
68.412499999999994
20
-54.625
10
55.412500000000016
20
-54.625
42
-0.41421356237309503
10
54.912500000000009
20
-54.125000000000014
10
54.912500000000009
20
-41.125
42
-0.41421356237307944
0
LWPOLYLINE
5
133
100
AcDbEntity
8
0
100
AcDbPolyline
90
8
70
1
43
0.0
10
183.21250000000003
20
-41.125
42
0.41421356237307422
10
182.71250000000006
20
-40.624999999999993
10
169.71249999999998
20
-40.624999999999972
42
0.4142135623730846
10
169.21250000000001
20
-41.125
10
169.21250000000001
20
-54.125000000000014
42
0.41421356237314705
10
169.71250000000001
20
-54.625000000000021
10
182.71250000000006
20
-54.624999999999979
42
0.41421356237308982
10
183.21250000000003
20
-54.125000000000014
0
LWPOLYLINE
5
134
100
AcDbEntity
8
0
100
AcDbPolyline
90
8
70
1
43
0.0
10
87.462500000000034
20
-40.625
42
-0.41421356237305862
10
87.96250000000002
20
-41.125
10
87.962500000000006
20
-54.125000000000014
42
-0.41421356237311585
10
87.46250000000002
20
-54.625
10
74.462500000000006
20
-54.625
42
-0.41421356237311063
10
73.962500000000006
20
-54.125000000000014
10
73.962500000000006
20
-41.125
42
-0.41421356237309503
10
74.462500000000006
20
-40.625
0
LWPOLYLINE
5
135
100
AcDbEntity
8
0
100
AcDbPolyline
90
8
70
1
43
0.0
10
254.65000000000003
20
-54.125000000000014
42
-0.41421356237307422
10
254.15000000000006
20
-54.625
10
241.15000000000006
20
-54.625000000000021
42
-0.41421356237307422
10
240.65000000000001
20
-54.125000000000014
10
240.65000000000001
20
-41.125
42
-0.41421356237311063
10
241.15000000000006
20
-40.625
10
254.15000000000006
20
-40.624999999999964
42
-0.41421356237304818
10
254.65000000000003
20
-41.125
0
LWPOLYLINE
5
136
100
AcDbEntity
8
0
100
AcDbPolyline
90
8
70
1
43
0.0
10
171.59375
20
-73.174999999999983
42
0.41421356237307944
10
172.09375
20
-73.67500000000004
10
185.09375000000003
20
-73.675000000000011
42
0.41421356237310025
10
185.59375000000003
20
-73.174999999999983
10
185.59375
20
-60.174999999999997
42
0.41421356237310542
10
185.09375000000003
20
-59.675000000000004
10
172.09375
20
-59.675000000000004
42
0.41421356237313145
10
171.59375
20
-60.174999999999997
0
LWPOLYLINE
5
137
100
AcDbEntity
8
0
100
AcDbPolyline
90
8
70
1
43
0.0
10
18.906250000000007
20
-60.174999999999997
42
0.41421356237308982
10
18.40625
20
-59.675000000000004
10
5.4062499999999991
20
-59.675000000000004
42
0.41421356237310542
10
4.9062500000000018
20
-60.174999999999997
10
4.9062499999999982
20
-73.174999999999983
42
0.41421356237309698
10
5.4062499999999991
20
-73.674999999999983
10
18.40625
20
-73.674999999999983
42
0.41421356237309764
10
18.90625
20
-73.174999999999983
0
LWPOLYLINE
5
138
100
AcDbEntity
8
0
100
AcDbPolyline
90
8
70
1
43
0.0
10
153.78125
20
-61.174999999999997
10
153.78125
20
-74.175000000000026
42
0.41421356237308982
10
154.28125
20
-74.675000000000026
10
160.03124999999997
20
-74.674999999999983
42
0.41421356237306384
10
160.53125
20
-74.175000000000026
10
160.53125
20
-61.174999999999997
42
0.41421356237314705
10
160.03125
20
-60.67499999999999
10
154.28125
20
-60.67499999999999
42
0.41421356237311585
0
LWPOLYLINE
5
139
100
AcDbEntity
8
0
100
AcDbPolyline
90
8
70
1
43
0.0
10
216.83750000000003
20
-45.887500000000003
10
216.83750000000006
20
-58.887500000000017
42
0.41421356237308982
10
217.33750000000001
20
-59.387500000000024
10
230.33750000000001
20
-59.387500000000024
42
0.41421356237307422
10
230.83750000000006
20
-58.887500000000017
10
230.83750000000006
20
-45.887500000000003
42
0.41421356237311063
10
230.33750000000001
20
-45.387500000000003
10
217.33750000000001
20
-45.387499999999967
42
0.41421356237304818
0
LWPOLYLINE
5
140
100
AcDbEntity
8
0
100
AcDbPolyline
90
8
70
1
43
0.0
10
42.21875
20
-59.675000000000004
10
29.21875
20
-59.675000000000011
42
0.41421356237309764
10
28.71875
20
-60.174999999999997
10
28.718749999999996
20
-73.174999999999983
42
0.41421356237309764
10
29.21875
20
-73.674999999999983
10
42.21875
20
-73.674999999999983
42
0.41421356237310025
10
42.718750000000007
20
-73.174999999999983
10
42.718750000000007
20
-60.174999999999997
42
0.41421356237310025
0
LWPOLYLINE
5
141
100
AcDbEntity
8
0
100
AcDbPolyline
90
8
70
1
43
0.0
10
60.531250000000014
20
-61.174999999999997
42
0.41421356237308982
10
60.031250000000007
20
-60.674999999999997
10
54.281250000000014
20
-60.674999999999997
42
0.41421356237313145
10
53.781250000000007
20
-61.174999999999997
10
53.781250000000014
20
-74.175000000000026
42
0.41421356237308982
10
54.281250000000014
20
-74.674999999999983
10
60.031250000000007
20
-74.674999999999997
42
0.41421356237308982
10
60.531250000000014
20
-74.175000000000026
0
LWPOLYLINE
5
142
100
AcDbEntity
8
0
100
AcDbPolyline
90
8
70
1
43
0.0
10
100.65625
20
-59.674999999999997
42
0.41421356237311585
10
100.15625
20
-60.174999999999997
10
100.15625
20
-73.174999999999983
42
0.41421356237311063
10
100.65625
20
-73.67500000000004
10
113.65625000000001
20
-73.674999999999983
42
0.41421356237308982
10
114.15625000000006
20
-73.174999999999983
10
114.15625000000006
20
-60.174999999999997
42
0.41421356237308982
10
113.65625000000001
20
-59.675000000000004
0
LWPOLYLINE
5
143
100
AcDbEntity
8
0
100
AcDbPolyline
90
8
70
1
43
0.0
10
197.78750000000002
20
-64.9375
10
197.78750000000005
20
-77.9375
42
0.41421356237305862
10
198.28749999999999
20
-78.437500000000014
10
211.28750000000002
20
-78.437500000000028
42
0.4142135623730846
10
211.78750000000002
20
-77.9375
10
211.78750000000002
20
-64.9375
42
0.41421356237314183
10
211.28749999999999
20
-64.4375
10
198.28749999999999
20
-64.4375
42
0.41421356237307422
0
CIRCLE
5
144
100
AcDbEntity
8
0
100
AcDbCircle
10
2.4489735101892931
20
-85.899486755101009
30
0
40
1.7000000000000004
210
0
220
0
230
1
0
LWPOLYLINE
5
145
100
AcDbEntity
8
0
100
AcDbPolyline
90
8
70
1
43
0.0
10
216.83750000000003
20
-77.9375
10
216.83750000000006
20
-64.9375
42
-0.4142135623730846
10
217.33750000000001
20
-64.4375
10
230.33750000000001
20
-64.437500000000028
42
-0.41421356237310025
10
230.83750000000006
20
-64.9375
10
230.83750000000006
20
-77.9375
42
-0.41421356237311063
10
230.33750000000001
20
-78.4375
10
217.33750000000001
20
-78.437500000000028
42
-0.41421356237304818
0
LWPOLYLINE
5
146
100
AcDbEntity
8
0
100
AcDbPolyline
90
14
70
1
43
0.0
10
82.524999999999977
20
2.4749999999999361
42
-0.99999999999999989
10
92.524999999999977
20
2.4749999999999361
10
164.65000000000003
20
2.4749999999998562
42
-0.99999999999999989
10
174.65000000000003
20
2.4749999999998562
10
249.65000000000003
20
2.4749999999997692
42
-0.99999999999999989
10
259.65000000000003
20
2.474999999999774
10
259.65000000000003
20
-83.437499999812829
42
-0.99999999999999989
10
249.65000000000003
20
-83.437499999812829
10
133.58750000000001
20
-83.437499999909889
42
-0.99999999999999989
10
123.58750000000008
20
-83.437499999909889
10
7.3729470203786196
20
-83.43750000000567
42
-0.99999999999999989
10
-2.4749999999999956
20
-83.43750000000567
10
-2.4750000000000005
20
2.4750000000000241
42
-0.99999999999999989
10
7.5250000000000039
20
2.4750000000000241
0
CIRCLE
5
147
100
AcDbEntity
8
0
100
AcDbCircle
10
2.5250000000000039
20
4.9750000000000245
30
0
40
1.7000000000000004
210
0
220
0
230
1
0
CIRCLE
5
148
100
AcDbEntity
8
0
100
AcDbCircle
10
254.65000000000003
20
4.9749999999997687
30
0
40
1.7000000000000004
210
0
220
0
230
1
0
CIRCLE
5
149
100
AcDbEntity
8
0
100
AcDbCircle
10
254.65000000000373
20
-85.937499999812829
30
0
40
1.7000000000000004
210
0
220
0
230
1
0
LWPOLYLINE
5
150
100
AcDbEntity
8
0
100
AcDbPolyline
90
8
70
1
43
0.0
10
236.38750000000002
20
-78.437500000000014
10
249.38749999999999
20
-78.437499999999986
42
0.41421356237312101
10
249.88749999999999
20
-77.9375
10
249.88749999999996
20
-64.9375
42
0.4142135623730222
10
249.38749999999999
20
-64.4375
10
236.38750000000002
20
-64.4375
42
0.41421356237313145
10
235.88750000000002
20
-64.9375
10
235.88750000000002
20
-77.9375
42
0.41421356237301699
0
CIRCLE
5
151
100
AcDbEntity
8
0
100
AcDbCircle
10
128.58750000000185
20
-85.937499999909846
30
0
40
1.7000000000000004
210
0
220
0
230
1
0
CIRCLE
5
152
100
AcDbEntity
8
0
100
AcDbCircle
10
87.524999999999977
20
4.9749999999999375
30
0
40
1.7000000000000004
210
0
220
0
230
1
0
CIRCLE
5
153
100
AcDbEntity
8
0
100
AcDbCircle
10
169.65000000000003
20
4.9749999999998558
30
0
40
1.7000000000000004
210
0
220
0
230
1
0
LWPOLYLINE
5
154
100
AcDbEntity
8
0
100
AcDbPolyline
90
4
70
1
43
0.0
10
233.86250000000004
20
-0.50000000000002209
42
0.99999999999999989
10
232.86250000000001
20
-0.49999999999998934
10
232.86250000000001
20
-37.599999999999973
42
0.99999999999999989
10
233.86250000000004
20
-37.600000000000009
0
LINE
5
155
100
AcDbEntity
8
0
100
AcDbLine
10
238.125
20
-54.625
30
0
11
257.17500000000001
21
-54.625
31
0
0
ENDSEC
0
SECTION
2
OBJECTS
0
DICTIONARY
5
C
100
AcDbDictionary
3
ACAD_GROUP
350
D
3
ACAD_MLINESTYLE
350
17
0
DICTIONARY
5
D
100
AcDbDictionary
0
DICTIONARY
5
1A
330
C
100
AcDbDictionary
0
DICTIONARY
5
17
100
AcDbDictionary
0
ENDSEC
0
EOF
