0
SECTION
2
HEADER
9
$INSUNITS
70
4
9
$ACADVER
1
AC1014
9
$HANDSEED
5
FFFF
0
ENDSEC
0
SECTION
2
TABLES
0
TABLE
2
VPORT
5
8
100
AcDbSymbolTable
0
ENDTAB
0
TABLE
2
LTYPE
5
5
100
AcDbSymbolTable
0
LTYPE
5
14
100
AcDbSymbolTableRecord
100
AcDbLinetypeTableRecord
2
BYBLOCK
70
0
0
LTYPE
5
15
100
AcDbSymbolTableRecord
100
AcDbLinetypeTableRecord
2
BYLAYER
70
0
0
ENDTAB
0
TABLE
2
LAYER
5
2
100
AcDbSymbolTable
70
2
0
LAYER
5
50
100
AcDbSymbolTableRecord
100
AcDbLayerTableRecord
2
0
70
0
6
CONTINUOUS
0
ENDTAB
0
TABLE
2
STYLE
5
3
100
AcDbSymbolTable
70
1
0
STYLE
5
11
100
AcDbSymbolTableRecord
100
AcDbTextStyleTableRecord
2
STANDARD
70
0
0
ENDTAB
0
TABLE
2
VIEW
5
6
100
AcDbSymbolTable
70
0
0
ENDTAB
0
TABLE
2
UCS
5
7
100
AcDbSymbolTable
70
0
0
ENDTAB
0
TABLE
2
APPID
5
9
100
AcDbSymbolTable
70
2
0
APPID
5
12
100
AcDbSymbolTableRecord
100
AcDbRegAppTableRecord
2
ACAD
70
0
0
ENDTAB
0
TABLE
2
DIMSTYLE
5
A
100
AcDbSymbolTable
70
1
0
ENDTAB
0
TABLE
2
BLOCK_RECORD
5
1
100
AcDbSymbolTable
70
1
0
BLOCK_RECORD
5
1F
100
AcDbSymbolTableRecord
100
AcDbBlockTableRecord
2
*MODEL_SPACE
0
BLOCK_RECORD
5
1B
100
AcDbSymbolTableRecord
100
AcDbBlockTableRecord
2
*PAPER_SPACE
0
ENDTAB
0
ENDSEC
0
SECTION
2
BLOCKS
0
BLOCK
5
20
100
AcDbEntity
100
AcDbBlockBegin
2
*MODEL_SPACE
0
ENDBLK
5
21
100
AcDbEntity
100
AcDbBlockEnd
0
BLOCK
5
1C
100
AcDbEntity
100
AcDbBlockBegin
2
*PAPER_SPACE
0
ENDBLK
5
1D
100
AcDbEntity
100
AcDbBlockEnd
0
ENDSEC
0
SECTION
2
ENTITIES
0
ELLIPSE
5
100
100
AcDbEntity
8
0
100
AcDbEllipse
10
118.76849999999956
20
37.071718463545757
30
0
11
-5.0237591864288333e-14
21
3.1871279842002314
31
0.0
40
0.99619469809174521
41
5.056723326589859
42
5.4977871437820838
0
ELLIPSE
5
101
100
AcDbEntity
8
0
100
AcDbEllipse
10
120.91250000000001
20
36.798306107519693
30
0
11
4.9960036108132044e-15
21
1.5935639921000644
31
0.0
40
0.99619469809174543
41
4.7123889803846968
42
5.7221659812764498
0
LINE
5
102
100
AcDbEntity
8
0
100
AcDbLine
10
122.5
20
36.798306107519693
30
0
11
122.5
21
-37.509457366626634
31
0
0
ELLIPSE
5
103
100
AcDbEntity
8
0
100
AcDbEllipse
10
120.91250000000001
20
-37.50945736662662
30
0
11
-4.8572257327350599e-15
21
-1.5935639921000644
31
0.0
40
0.99619469809174543
41
0.56101932590320691
42
1.570796326794893
0
ELLIPSE
5
104
100
AcDbEntity
8
0
100
AcDbEllipse
10
118.76849999999983
20
-37.782869722651562
30
0
11
8.5202575171611959e-14
21
3.1871279842003508
31
0.0
40
0.99619469809174521
41
3.9269908169873067
42
4.3680546341792033
0
LINE
5
105
100
AcDbEntity
8
0
100
AcDbLine
10
121.01356403026736
20
-40.036509532788962
30
0
11
116.87343596973285
21
-44.192452209923438
31
0
0
ELLIPSE
5
106
100
AcDbEntity
8
0
100
AcDbEllipse
10
114.62837193946558
20
-41.938812399786187
30
0
11
-3.1086244689504396e-14
21
-3.1871279842000644
31
0.0
40
0.99619469809174543
41
0
42
0.78539816339746715
0
LINE
5
107
100
AcDbEntity
8
0
100
AcDbLine
10
114.62837193946554
20
-45.125940383986247
30
0
11
107.25862806053468
21
-45.125940383986283
31
0
0
ELLIPSE
5
108
100
AcDbEntity
8
0
100
AcDbEllipse
10
107.25862806053468
20
-41.938812399786094
30
0
11
-5.2665173986003903e-15
21
-3.1871279842001812
31
0.0
40
0.99619469809174532
41
5.4977871437821504
42
6.2831853071795933
0
LINE
5
109
100
AcDbEntity
8
0
100
AcDbLine
10
105.01356403026736
20
-44.192452209923488
30
0
11
100.87355379140264
21
-40.03662780762334
31
0
0
ELLIPSE
5
110
100
AcDbEntity
8
0
100
AcDbEllipse
10
98.628371939462923
20
-42.290149342926561
30
0
11
-1.0824674490095276e-14
21
3.1871279842003384
31
0.0
40
0.99619469809174555
41
5.4977346627767254
42
6.2831853071788863
0
LINE
5
111
100
AcDbEntity
8
0
100
AcDbLine
10
98.628371939465154
20
-39.103021358726224
30
0
11
-98.628871939465284
21
-39.10302135872719
31
0
0
ELLIPSE
5
112
100
AcDbEntity
8
0
100
AcDbEllipse
10
-98.628871939465228
20
-42.29014934292735
30
0
11
4.3576253716537394e-14
21
3.1871279842001528
31
0.0
40
0.99619469809174532
41
2.8421709430403906e-14
42
0.78539816339746715
0
LINE
5
113
100
AcDbEntity
8
0
100
AcDbLine
10
-100.87393596973256
20
-40.036509532790035
30
0
11
-105.01406403026709
21
-44.192452209924525
31
0
0
ELLIPSE
5
114
100
AcDbEntity
8
0
100
AcDbEllipse
10
-107.25912806053441
20
-41.938812399787231
30
0
11
-5.9396931817445875e-14
21
-3.187127984200115
31
0.0
40
0.99619469809174532
41
2.1316282072802968e-14
42
0.78539816339747848
0
LINE
5
115
100
AcDbEntity
8
0
100
AcDbLine
10
-107.25912806053438
20
-45.125940383987349
30
0
11
-114.62887193946523
21
-45.125940383987384
31
0
0
ELLIPSE
5
116
100
AcDbEntity
8
0
100
AcDbEllipse
10
-114.62887193946526
20
-41.938812399787267
30
0
11
1.2497050995402217e-14
21
-3.187127984200119
31
0.0
40
0.99619469809174532
41
5.4977871437821326
42
6.2831853071795933
0
LINE
5
117
100
AcDbEntity
8
0
100
AcDbLine
10
-116.87393596973253
20
-44.192452209924589
30
0
11
-121.01406403026714
21
-40.036509532790134
31
0
0
ELLIPSE
5
118
100
AcDbEntity
8
0
100
AcDbEllipse
10
-118.76899999999985
20
-37.782869722652805
30
0
11
5.1347814888913503e-14
21
-3.1871279842001243
31
0.0
40
0.99619469809174532
41
5.0565875365884629
42
5.4977871437821255
0
ELLIPSE
5
119
100
AcDbEntity
8
0
100
AcDbEllipse
10
-120.91250000000001
20
-37.50945736662662
30
0
11
4.8572257327350599e-15
21
-1.5935639921000644
31
0.0
40
0.99619469809174543
41
4.7123889803846861
42
5.7216856746527638
0
LINE
5
120
100
AcDbEntity
8
0
100
AcDbLine
10
-122.5
20
-37.50945736662662
30
0
11
-122.5
21
36.798306107519693
31
0
0
ELLIPSE
5
121
100
AcDbEntity
8
0
100
AcDbEllipse
10
-120.91250000000001
20
36.798306107519693
30
0
11
-4.9960036108132044e-15
21
1.5935639921000644
31
0.0
40
0.99619469809174543
41
0.56149963252668278
42
1.5707963267948895
0
ELLIPSE
5
122
100
AcDbEntity
8
0
100
AcDbEllipse
10
-118.76900000000028
20
37.071718463544634
30
0
11
2.5819727290904174e-14
21
-3.1871279842000835
31
0.0
40
0.99619469809174521
41
3.926990816987229
42
4.3681904241804279
0
LINE
5
123
100
AcDbEntity
8
0
100
AcDbLine
10
-121.01406403026751
20
39.325358273681942
30
0
11
-116.873935969733
21
43.481300950816404
31
0
0
ELLIPSE
5
124
100
AcDbEntity
8
0
100
AcDbEllipse
10
-114.62887193946565
20
41.22766114067911
30
0
11
6.2727600891321345e-14
21
3.1871279842001403
31
0.0
40
0.99619469809174532
41
2.8421709430403906e-14
42
0.78539816339748847
0
LINE
5
125
100
AcDbEntity
8
0
100
AcDbLine
10
-114.62887193946565
20
44.414789124879249
30
0
11
-107.25912806053481
21
44.414789124879277
31
0
0
ELLIPSE
5
126
100
AcDbEntity
8
0
100
AcDbEllipse
10
-107.25912806053483
20
41.227661140679146
30
0
11
2.3030085792602805e-14
21
3.1871279842001279
31
0.0
40
0.99619469809174543
41
5.4977871437821406
42
6.2831853071795862
0
LINE
5
127
100
AcDbEntity
8
0
100
AcDbLine
10
-105.01406403026752
20
43.481300950816461
30
0
11
-100.87393596973298
21
39.325358273682028
31
0
0
ELLIPSE
5
128
100
AcDbEntity
8
0
100
AcDbEllipse
10
-98.628871939465697
20
41.578998083819329
30
0
11
-5.2665173986002806e-15
21
-3.187127984200115
31
0.0
40
0.9961946980917451
41
5.4977871437821344
42
6.2831853071795933
0
LINE
5
129
100
AcDbEntity
8
0
100
AcDbLine
10
-98.628871939465682
20
38.391870099619211
30
0
11
98.628371939465183
21
38.391870099620178
31
0
0
ELLIPSE
5
130
100
AcDbEntity
8
0
100
AcDbEllipse
10
98.628371939465126
20
41.578998083820345
30
0
11
-6.3005156647477634e-14
21
-3.1871279842001652
31
0.0
40
0.99619469809174532
41
3.9079850466805371e-14
42
0.78539816339747848
0
LINE
5
131
100
AcDbEntity
8
0
100
AcDbLine
10
100.87343596973247
20
39.325358273683023
30
0
11
105.01356403026692
21
43.481300950817499
31
0
0
ELLIPSE
5
132
100
AcDbEntity
8
0
100
AcDbEllipse
10
107.25862806053425
20
41.227661140680176
30
0
11
4.3576253716537394e-14
21
3.1871279842001528
31
0.0
40
0.99619469809174532
41
2.8421709430404058e-14
42
0.78539816339746837
0
LINE
5
133
100
AcDbEntity
8
0
100
AcDbLine
10
107.25862806053419
20
44.414789124880329
30
0
11
114.6283719394651
21
44.414789124880379
31
0
0
ELLIPSE
5
134
100
AcDbEntity
8
0
100
AcDbEllipse
10
114.62837193946513
20
41.227661140680418
30
0
11
-3.0260619389404971e-14
21
3.1871279841999671
31
0.0
40
0.99619469809174532
41
5.4977871437820891
42
6.2831853071795862
0
LINE
5
135
100
AcDbEntity
8
0
100
AcDbLine
10
116.87343596973238
20
43.481300950817534
30
0
11
121.01356403026702
21
39.325358273683051
31
0
0
LWPOLYLINE
5
136
100
AcDbEntity
8
0
100
AcDbPolyline
90
4
70
1
43
0.0
10
145
20
65
10
145
20
-65
10
-145
20
-65
10
-145
20
65
0
LWPOLYLINE
5
137
100
AcDbEntity
8
0
100
AcDbPolyline
90
8
70
1
43
0.0
10
-128.65000000000001
20
55
10
128.65000000000001
20
55
42
-0.41421356237309503
10
135
20
48.650000000000006
10
135
20
-48.649999999999984
42
-0.41421356237309503
10
128.65000000000003
20
-54.999999999999986
10
-128.65000000000003
20
-54.999999999999986
42
-0.41421356237309426
10
-135
20
-48.649999999999984
10
-135
20
48.650000000000006
42
-0.41421356237309503
0
LINE
5
138
100
AcDbEntity
8
0
100
AcDbLine
10
135
20
55
30
0
11
-135
21
-55
31
0
0
LINE
5
139
100
AcDbEntity
8
0
100
AcDbLine
10
-135
20
55
30
0
11
135.00000000000003
21
-55.000000000000014
31
0
0
CIRCLE
5
140
100
AcDbEntity
8
0
100
AcDbCircle
10
-128.65000000000001
20
48.650000000000006
30
0
40
1.5500000000000003
210
0
220
0
230
1
0
CIRCLE
5
141
100
AcDbEntity
8
0
100
AcDbCircle
10
-128.65000000000001
20
-48.649999999999984
30
0
40
1.5500000000000003
210
0
220
0
230
1
0
CIRCLE
5
142
100
AcDbEntity
8
0
100
AcDbCircle
10
128.65000000000001
20
-48.649999999999984
30
0
40
1.5500000000000003
210
0
220
0
230
1
0
CIRCLE
5
143
100
AcDbEntity
8
0
100
AcDbCircle
10
128.65000000000001
20
48.650000000000006
30
0
40
1.5500000000000003
210
0
220
0
230
1
0
ENDSEC
0
SECTION
2
OBJECTS
0
DICTIONARY
5
C
100
AcDbDictionary
3
ACAD_GROUP
350
D
3
ACAD_MLINESTYLE
350
17
0
DICTIONARY
5
D
100
AcDbDictionary
0
DICTIONARY
5
1A
330
C
100
AcDbDictionary
0
DICTIONARY
5
17
100
AcDbDictionary
0
ENDSEC
0
EOF
