0
SECTION
2
HEADER
9
$INSUNITS
70
4
9
$ACADVER
1
AC1014
9
$HANDSEED
5
FFFF
0
ENDSEC
0
SECTION
2
TABLES
0
TABLE
2
VPORT
5
8
100
AcDbSymbolTable
0
ENDTAB
0
TABLE
2
LTYPE
5
5
100
AcDbSymbolTable
0
LTYPE
5
14
100
AcDbSymbolTableRecord
100
AcDbLinetypeTableRecord
2
BYBLOCK
70
0
0
LTYPE
5
15
100
AcDbSymbolTableRecord
100
AcDbLinetypeTableRecord
2
BYLAYER
70
0
0
ENDTAB
0
TABLE
2
LAYER
5
2
100
AcDbSymbolTable
70
2
0
LAYER
5
50
100
AcDbSymbolTableRecord
100
AcDbLayerTableRecord
2
0
70
0
6
CONTINUOUS
0
ENDTAB
0
TABLE
2
STYLE
5
3
100
AcDbSymbolTable
70
1
0
STYLE
5
11
100
AcDbSymbolTableRecord
100
AcDbTextStyleTableRecord
2
STANDARD
70
0
0
ENDTAB
0
TABLE
2
VIEW
5
6
100
AcDbSymbolTable
70
0
0
ENDTAB
0
TABLE
2
UCS
5
7
100
AcDbSymbolTable
70
0
0
ENDTAB
0
TABLE
2
APPID
5
9
100
AcDbSymbolTable
70
2
0
APPID
5
12
100
AcDbSymbolTableRecord
100
AcDbRegAppTableRecord
2
ACAD
70
0
0
ENDTAB
0
TABLE
2
DIMSTYLE
5
A
100
AcDbSymbolTable
70
1
0
ENDTAB
0
TABLE
2
BLOCK_RECORD
5
1
100
AcDbSymbolTable
70
1
0
BLOCK_RECORD
5
1F
100
AcDbSymbolTableRecord
100
AcDbBlockTableRecord
2
*MODEL_SPACE
0
BLOCK_RECORD
5
1B
100
AcDbSymbolTableRecord
100
AcDbBlockTableRecord
2
*PAPER_SPACE
0
ENDTAB
0
ENDSEC
0
SECTION
2
BLOCKS
0
BLOCK
5
20
100
AcDbEntity
100
AcDbBlockBegin
2
*MODEL_SPACE
0
ENDBLK
5
21
100
AcDbEntity
100
AcDbBlockEnd
0
BLOCK
5
1C
100
AcDbEntity
100
AcDbBlockBegin
2
*PAPER_SPACE
0
ENDBLK
5
1D
100
AcDbEntity
100
AcDbBlockEnd
0
ENDSEC
0
SECTION
2
ENTITIES
0
LWPOLYLINE
5
100
100
AcDbEntity
8
0
100
AcDbPolyline
90
8
70
1
43
0.0
10
26.837499999999999
20
-35.57500000000001
10
39.837499999999999
20
-35.575000000000003
42
0.4142135623730846
10
40.337499999999991
20
-35.075000000000003
10
40.337500000000013
20
-22.074999999999999
42
0.41421356237310281
10
39.837499999999999
20
-21.575000000000003
10
26.837499999999999
20
-21.575000000000006
42
0.41421356237310281
10
26.337499999999999
20
-22.074999999999999
10
26.337499999999995
20
-35.075000000000003
42
0.41421356237309243
0
LWPOLYLINE
5
101
100
AcDbEntity
8
0
100
AcDbPolyline
90
8
70
1
43
0.0
10
98.275000000000006
20
-16.525000000000006
10
111.27500000000001
20
-16.525000000000006
42
0.41421356237309503
10
111.77500000000002
20
-16.024999999999999
10
111.77500000000002
20
-3.0249999999999999
42
0.41421356237309437
10
111.27500000000001
20
-2.5249999999999928
10
98.275000000000006
20
-2.5250000000000021
42
0.41421356237312074
10
97.77500000000002
20
-3.0249999999999999
10
97.775000000000034
20
-16.024999999999999
42
0.41421356237307944
0
LWPOLYLINE
5
102
100
AcDbEntity
8
0
100
AcDbPolyline
90
12
70
1
43
0.0
10
-0.93118550055788063
20
-77.18980233800221
10
-0.9311855005578884
20
0.81019766199789112
42
-0.99999999999999989
10
9.0688144994421194
20
0.81019766199789112
10
116.56881449944316
20
0.81019766199789067
42
-0.99999999999999989
10
126.56881449944314
20
0.81019766199789067
10
234.06881449944424
20
0.81019766199787235
42
-0.99999999999999989
10
244.06881449944424
20
0.81019766199787568
10
244.06881449944424
20
-77.189802338002295
42
-0.99999999999999989
10
234.06881449944424
20
-77.189802338002295
10
126.56881449944315
20
-77.189802338002266
42
-0.99999999999999989
10
116.56881449944315
20
-77.189802338002266
10
9.0688144994421194
20
-77.18980233800221
42
-0.99999999999999989
0
LWPOLYLINE
5
103
100
AcDbEntity
8
0
100
AcDbPolyline
90
8
70
1
43
0.0
10
116.82500000000003
20
-3.0249999999999999
42
-0.41421356237305701
10
117.32500000000002
20
-2.5249999999999999
10
130.32499999999999
20
-2.5250000000000106
42
-0.41421356237310542
10
130.82499999999999
20
-3.0249999999999999
10
130.82499999999999
20
-16.024999999999999
42
-0.41421356237309243
10
130.32499999999999
20
-16.525000000000002
10
117.32500000000002
20
-16.524999999999999
42
-0.41421356237312101
10
116.82500000000003
20
-16.024999999999999
0
LWPOLYLINE
5
104
100
AcDbEntity
8
0
100
AcDbPolyline
90
8
70
1
43
0.0
10
88.568250000000006
20
-60.67499999999999
10
82.818250000000006
20
-60.67499999999999
42
0.41421356237311585
10
82.318250000000006
20
-61.174999999999997
10
82.318250000000006
20
-74.175000000000026
42
0.41421356237308982
10
82.818250000000006
20
-74.675000000000026
10
88.568250000000006
20
-74.674999999999983
42
0.41421356237310025
10
89.068250000000006
20
-74.175000000000026
10
89.068250000000006
20
-61.174999999999997
42
0.41421356237310025
0
LWPOLYLINE
5
105
100
AcDbEntity
8
0
100
AcDbPolyline
90
8
70
1
43
0.0
10
73.174999999999983
20
-2.524999999999999
42
-0.41421356237309664
10
73.674999999999983
20
-3.0249999999999999
10
73.674999999999983
20
-16.024999999999999
42
-0.41421356237309631
10
73.174999999999983
20
-16.525000000000002
10
60.174999999999997
20
-16.525000000000002
42
-0.41421356237309764
10
59.675000000000004
20
-16.024999999999999
10
59.675000000000004
20
-3.0249999999999999
42
-0.41421356237309698
10
60.174999999999997
20
-2.5249999999999999
0
LWPOLYLINE
5
106
100
AcDbEntity
8
0
100
AcDbPolyline
90
8
70
1
43
0.0
10
144.61250000000001
20
-73.674999999999983
10
131.61250000000001
20
-73.674999999999997
42
-0.41421356237311585
10
131.11250000000001
20
-73.174999999999983
10
131.11250000000001
20
-60.174999999999997
42
-0.41421356237310542
10
131.61250000000001
20
-59.675000000000004
10
144.61250000000001
20
-59.674999999999997
42
-0.41421356237309503
10
145.11250000000001
20
-60.174999999999997
10
145.11250000000001
20
-73.174999999999983
42
-0.41421356237307422
0
LWPOLYLINE
5
107
100
AcDbEntity
8
0
100
AcDbPolyline
90
8
70
1
43
0.0
10
106.69425000000001
20
-74.675000000000026
10
112.44425
20
-74.674999999999983
42
0.41421356237310025
10
112.94425000000001
20
-74.175000000000026
10
112.94425000000001
20
-61.174999999999997
42
0.41421356237310025
10
112.44425
20
-60.67499999999999
10
106.69425000000001
20
-60.67499999999999
42
0.41421356237311585
10
106.19425
20
-61.174999999999997
10
106.19425
20
-74.175000000000026
42
0.41421356237308982
0
LWPOLYLINE
5
108
100
AcDbEntity
8
0
100
AcDbPolyline
90
8
70
1
43
0.0
10
193.52500000000006
20
-2.5250000000000146
42
0.41421356237312396
10
193.02500000000006
20
-3.0249999999999999
10
193.02500000000003
20
-16.024999999999999
42
0.41421356237312362
10
193.52500000000006
20
-16.525000000000006
10
206.52500000000003
20
-16.524999999999984
42
0.41421356237312362
10
207.02500000000003
20
-16.024999999999999
10
207.02499999999998
20
-3.0249999999999999
42
0.41421356237308493
10
206.52500000000003
20
-2.5249999999999928
0
LWPOLYLINE
5
109
100
AcDbEntity
8
0
100
AcDbPolyline
90
8
70
1
43
0.0
10
22.074999999999999
20
-16.524999999999999
10
35.075000000000003
20
-16.525000000000006
42
0.4142135623730937
10
35.57500000000001
20
-16.024999999999999
10
35.57500000000001
20
-3.0249999999999999
42
0.41421356237309537
10
35.075000000000003
20
-2.5250000000000017
10
22.074999999999999
20
-2.5250000000000004
42
0.41421356237308787
10
21.575000000000006
20
-3.0249999999999999
10
21.575000000000006
20
-16.024999999999999
42
0.41421356237310281
0
LWPOLYLINE
5
110
100
AcDbEntity
8
0
100
AcDbPolyline
90
8
70
1
43
0.0
10
92.224999999999994
20
-2.5250000000000044
42
-0.41421356237309859
10
92.725000000000023
20
-3.0249999999999999
10
92.725000000000023
20
-16.024999999999999
42
-0.41421356237310153
10
92.224999999999994
20
-16.525000000000002
10
79.224999999999994
20
-16.525000000000002
42
-0.41421356237309764
10
78.724999999999994
20
-16.024999999999999
10
78.724999999999994
20
-3.0249999999999999
42
-0.41421356237307522
10
79.22499999999998
20
-2.5249999999999999
0
LWPOLYLINE
5
111
100
AcDbEntity
8
0
100
AcDbPolyline
90
8
70
1
43
0.0
10
16.024999999999999
20
-2.5249999999999995
42
-0.4142135623730937
10
16.525000000000002
20
-3.0249999999999999
10
16.525000000000002
20
-16.024999999999999
42
-0.4142135623730937
10
16.024999999999999
20
-16.525000000000002
10
3.0249999999999999
20
-16.525000000000002
42
-0.41421356237309437
10
2.5249999999999999
20
-16.024999999999999
10
2.5249999999999999
20
-3.0249999999999999
42
-0.41421356237309437
10
3.0249999999999999
20
-2.5249999999999999
0
LWPOLYLINE
5
112
100
AcDbEntity
8
0
100
AcDbPolyline
90
8
70
1
43
0.0
10
54.625
20
-16.024999999999999
42
-0.41421356237308071
10
54.125000000000014
20
-16.525000000000002
10
41.125000000000007
20
-16.525000000000002
42
-0.41421356237309764
10
40.625
20
-16.024999999999999
10
40.625
20
-3.0249999999999999
42
-0.41421356237307522
10
41.125
20
-2.5249999999999999
10
54.125000000000014
20
-2.5250000000000039
42
-0.41421356237310936
10
54.625
20
-3.0249999999999999
0
LWPOLYLINE
5
113
100
AcDbEntity
8
0
100
AcDbPolyline
90
8
70
1
43
0.0
10
173.97500000000005
20
-3.0249999999999999
10
173.97500000000002
20
-16.024999999999999
42
0.41421356237312362
10
174.47500000000005
20
-16.525000000000006
10
187.47499999999999
20
-16.525000000000013
42
0.41421356237309892
10
187.97499999999999
20
-16.024999999999999
10
187.97499999999999
20
-3.0249999999999999
42
0.41421356237314544
10
187.47499999999999
20
-2.5249999999999928
10
174.47500000000005
20
-2.5250000000000146
42
0.41421356237312396
0
LWPOLYLINE
5
114
100
AcDbEntity
8
0
100
AcDbPolyline
90
8
70
1
43
0.0
10
77.9375
20
-35.57500000000001
42
0.41421356237308982
10
78.4375
20
-35.075000000000003
10
78.4375
20
-22.074999999999999
42
0.41421356237308982
10
77.9375
20
-21.575000000000006
10
64.9375
20
-21.575000000000006
42
0.41421356237309243
10
64.4375
20
-22.074999999999999
10
64.437500000000014
20
-35.075000000000003
42
0.41421356237309243
10
64.9375
20
-35.57500000000001
0
LWPOLYLINE
5
115
100
AcDbEntity
8
0
100
AcDbPolyline
90
8
70
1
43
0.0
10
83.987499999999983
20
-21.575000000000006
10
96.987500000000011
20
-21.575000000000003
42
-0.41421356237311063
10
97.487500000000011
20
-22.074999999999999
10
97.487500000000011
20
-35.075000000000003
42
-0.41421356237309243
10
96.987500000000011
20
-35.57500000000001
10
83.987499999999983
20
-35.575000000000017
42
-0.41421356237308721
10
83.487499999999983
20
-35.075000000000003
10
83.487500000000026
20
-22.074999999999999
42
-0.41421356237307161
0
LWPOLYLINE
5
116
100
AcDbEntity
8
0
100
AcDbPolyline
90
8
70
1
43
0.0
10
45.887500000000003
20
-21.575000000000006
10
58.887500000000017
20
-21.575000000000003
42
-0.41421356237307944
10
59.387500000000003
20
-22.074999999999999
10
59.387500000000003
20
-35.075000000000003
42
-0.41421356237309503
10
58.887500000000017
20
-35.57500000000001
10
45.887500000000003
20
-35.57500000000001
42
-0.41421356237308982
10
45.387500000000003
20
-35.075000000000003
10
45.387500000000003
20
-22.074999999999999
42
-0.41421356237308982
0
LWPOLYLINE
5
117
100
AcDbEntity
8
0
100
AcDbPolyline
90
8
70
1
43
0.0
10
18.40625
20
-21.575000000000003
10
5.4062499999999991
20
-21.575000000000006
42
0.4142135623731022
10
4.9062500000000018
20
-22.074999999999999
10
4.9062499999999964
20
-35.075000000000003
42
0.41421356237309309
10
5.4062499999999991
20
-35.57500000000001
10
18.40625
20
-35.57500000000001
42
0.41421356237309631
10
18.90625
20
-35.075000000000003
10
18.906250000000004
20
-22.074999999999999
42
0.41421356237309243
0
LWPOLYLINE
5
118
100
AcDbEntity
8
0
100
AcDbPolyline
90
8
70
1
43
0.0
10
219.21875
20
-3.0249999999999999
10
219.21875
20
-16.024999999999999
42
0.41421356237314577
10
219.71875
20
-16.525000000000006
10
232.71875
20
-16.525000000000006
42
0.41421356237307422
10
233.21875000000006
20
-16.024999999999999
10
233.21875000000006
20
-3.0249999999999999
42
0.41421356237307261
10
232.71875
20
-2.5249999999999928
10
219.71875
20
-2.5249999999999835
42
0.41421356237310053
0
LWPOLYLINE
5
119
100
AcDbEntity
8
0
100
AcDbPolyline
90
8
70
1
43
0.0
10
149.375
20
-2.5250000000000106
42
-0.41421356237310542
10
149.875
20
-3.0249999999999999
10
149.875
20
-16.024999999999999
42
-0.41421356237309243
10
149.375
20
-16.525000000000002
10
136.375
20
-16.525000000000006
42
-0.41421356237307294
10
135.875
20
-16.024999999999999
10
135.875
20
-3.0249999999999999
42
-0.41421356237307227
10
136.375
20
-2.5249999999999999
0
LWPOLYLINE
5
120
100
AcDbEntity
8
0
100
AcDbPolyline
90
8
70
1
43
0.0
10
154.92500000000001
20
-16.024999999999999
10
154.92500000000001
20
-3.0249999999999999
42
-0.41421356237307227
10
155.42500000000001
20
-2.5249999999999999
10
168.42500000000001
20
-2.5250000000000155
42
-0.41421356237312335
10
168.92500000000001
20
-3.0249999999999999
10
168.92500000000001
20
-16.024999999999999
42
-0.41421356237309892
10
168.42500000000001
20
-16.525000000000002
10
155.42500000000001
20
-16.525000000000006
42
-0.41421356237307422
0
LWPOLYLINE
5
121
100
AcDbEntity
8
0
100
AcDbPolyline
90
8
70
1
43
0.0
10
103.03750000000001
20
-21.575000000000006
10
116.03749999999998
20
-21.575000000000003
42
-0.41421356237308982
10
116.53750000000001
20
-22.074999999999999
10
116.53750000000001
20
-35.075000000000003
42
-0.41421356237307161
10
116.03749999999999
20
-35.57500000000001
10
103.03750000000001
20
-35.575000000000003
42
-0.41421356237309243
10
102.53749999999999
20
-35.075000000000003
10
102.53749999999999
20
-22.074999999999999
42
-0.41421356237308721
0
LWPOLYLINE
5
122
100
AcDbEntity
8
0
100
AcDbPolyline
90
8
70
1
43
0.0
10
178.73750000000001
20
-22.074999999999999
42
-0.41421356237316265
10
179.23750000000001
20
-21.575000000000006
10
192.23750000000001
20
-21.574999999999989
42
-0.41421356237307683
10
192.73750000000007
20
-22.074999999999999
10
192.73750000000007
20
-35.075000000000003
42
-0.41421356237307422
10
192.23750000000001
20
-35.57500000000001
10
179.23750000000001
20
-35.575000000000017
42
-0.41421356237309764
10
178.73750000000001
20
-35.075000000000003
0
CIRCLE
5
123
100
AcDbEntity
8
0
100
AcDbCircle
10
121.56881449944315
20
-79.689802338002266
30
0
40
1.7000000000000004
210
0
220
0
230
1
0
LWPOLYLINE
5
124
100
AcDbEntity
8
0
100
AcDbPolyline
90
8
70
1
43
0.0
10
197.78750000000002
20
-35.075000000000003
10
197.78750000000005
20
-22.074999999999999
42
-0.41421356237307944
10
198.28749999999999
20
-21.575000000000006
10
211.28749999999999
20
-21.575000000000017
42
-0.41421356237312362
10
211.78750000000002
20
-22.074999999999999
10
211.78750000000002
20
-35.075000000000003
42
-0.41421356237314444
10
211.28749999999999
20
-35.57500000000001
10
198.28749999999999
20
-35.575000000000038
42
-0.41421356237305079
0
LWPOLYLINE
5
125
100
AcDbEntity
8
0
100
AcDbPolyline
90
8
70
1
43
0.0
10
122.08750000000002
20
-35.57500000000001
10
135.08750000000001
20
-35.575000000000003
42
0.41421356237307161
10
135.58750000000001
20
-35.075000000000003
10
135.58750000000001
20
-22.074999999999999
42
0.41421356237307422
10
135.08750000000001
20
-21.574999999999992
10
122.08750000000002
20
-21.575000000000003
42
0.41421356237311063
10
121.58750000000001
20
-22.074999999999999
10
121.58750000000001
20
-35.075000000000003
42
0.41421356237309243
0
CIRCLE
5
126
100
AcDbEntity
8
0
100
AcDbCircle
10
4.0688144994421194
20
-79.68980233800221
30
0
40
1.7000000000000004
210
0
220
0
230
1
0
LWPOLYLINE
5
127
100
AcDbEntity
8
0
100
AcDbPolyline
90
8
70
1
43
0.0
10
154.63750000000005
20
-35.075000000000003
10
154.63749999999999
20
-22.074999999999999
42
0.41421356237310281
10
154.13749999999999
20
-21.574999999999992
10
141.13749999999999
20
-21.575000000000003
42
0.41421356237311063
10
140.63749999999999
20
-22.074999999999999
10
140.63749999999999
20
-35.075000000000003
42
0.41421356237309243
10
141.13749999999999
20
-35.57500000000001
10
154.13749999999999
20
-35.575000000000017
42
0.41421356237307944
0
CIRCLE
5
128
100
AcDbEntity
8
0
100
AcDbCircle
10
239.06881449944424
20
3.3101976619978721
30
0
40
1.7000000000000004
210
0
220
0
230
1
0
CIRCLE
5
129
100
AcDbEntity
8
0
100
AcDbCircle
10
121.56881449944315
20
3.3101976619978823
30
0
40
1.7000000000000004
210
0
220
0
230
1
0
LWPOLYLINE
5
130
100
AcDbEntity
8
0
100
AcDbPolyline
90
8
70
1
43
0.0
10
159.6875
20
-35.075000000000003
42
0.41421356237309243
10
160.1875
20
-35.57500000000001
10
173.1875
20
-35.575000000000017
42
0.41421356237310025
10
173.68750000000003
20
-35.075000000000003
10
173.68750000000003
20
-22.074999999999999
42
0.41421356237310281
10
173.1875
20
-21.574999999999992
10
160.1875
20
-21.575000000000021
42
0.41421356237312101
10
159.6875
20
-22.074999999999999
0
CIRCLE
5
131
100
AcDbEntity
8
0
100
AcDbCircle
10
4.0688144994421123
20
3.3101976619978926
30
0
40
1.7000000000000004
210
0
220
0
230
1
0
CIRCLE
5
132
100
AcDbEntity
8
0
100
AcDbCircle
10
239.06881449944424
20
-79.689802338002295
30
0
40
1.7000000000000004
210
0
220
0
230
1
0
LWPOLYLINE
5
133
100
AcDbEntity
8
0
100
AcDbPolyline
90
8
70
1
43
0.0
10
4.9062499999999982
20
-60.174999999999997
42
-0.41421356237309698
10
5.4062499999999991
20
-59.675000000000004
10
18.40625
20
-59.675000000000004
42
-0.41421356237309631
10
18.906250000000004
20
-60.174999999999997
10
18.906250000000004
20
-73.174999999999983
42
-0.41421356237309764
10
18.40625
20
-73.674999999999983
10
5.4062499999999991
20
-73.674999999999983
42
-0.41421356237309698
10
4.90625
20
-73.174999999999983
0
LWPOLYLINE
5
134
100
AcDbEntity
8
0
100
AcDbPolyline
90
8
70
1
43
0.0
10
202.26249999999999
20
-54.125000000000014
10
202.26249999999999
20
-41.125
42
0.41421356237314705
10
201.76249999999999
20
-40.624999999999993
10
188.76249999999999
20
-40.625000000000014
42
0.41421356237312101
10
188.26249999999999
20
-41.125
10
188.26249999999993
20
-54.125000000000014
42
0.41421356237312623
10
188.76249999999999
20
-54.625000000000021
10
201.76249999999999
20
-54.624999999999993
42
0.41421356237312101
0
LWPOLYLINE
5
135
100
AcDbEntity
8
0
100
AcDbPolyline
90
8
70
1
43
0.0
10
112.56250000000001
20
-54.625000000000021
10
125.5625
20
-54.625
42
0.41421356237306384
10
126.06250000000001
20
-54.125000000000014
10
126.06250000000001
20
-41.125
42
0.41421356237307422
10
125.5625
20
-40.624999999999993
10
112.56250000000001
20
-40.625
42
0.41421356237308982
10
112.0625
20
-41.125
10
112.0625
20
-54.125000000000014
42
0.41421356237310025
0
LWPOLYLINE
5
136
100
AcDbEntity
8
0
100
AcDbPolyline
90
8
70
1
43
0.0
10
169.71249999999998
20
-40.624999999999972
42
0.4142135623730846
10
169.21250000000001
20
-41.125
10
169.21250000000001
20
-54.125000000000014
42
0.41421356237314705
10
169.71250000000001
20
-54.625000000000021
10
182.71250000000006
20
-54.624999999999979
42
0.41421356237308982
10
183.21250000000003
20
-54.125000000000014
10
183.21250000000003
20
-41.125
42
0.41421356237307422
10
182.71250000000006
20
-40.624999999999993
0
LWPOLYLINE
5
137
100
AcDbEntity
8
0
100
AcDbPolyline
90
8
70
1
43
0.0
10
163.66250000000005
20
-40.624999999999993
10
150.66249999999999
20
-40.625
42
0.41421356237308982
10
150.16249999999999
20
-41.125
10
150.16249999999999
20
-54.125000000000014
42
0.41421356237310025
10
150.66249999999999
20
-54.625000000000021
10
163.66250000000005
20
-54.624999999999993
42
0.41421356237312101
10
164.16250000000005
20
-54.125000000000014
10
164.16250000000005
20
-41.125
42
0.41421356237314705
0
LWPOLYLINE
5
138
100
AcDbEntity
8
0
100
AcDbPolyline
90
8
70
1
43
0.0
10
93.012500000000017
20
-41.125
10
93.012499999999989
20
-54.125000000000014
42
0.41421356237305862
10
93.512500000000003
20
-54.625000000000021
10
106.51250000000003
20
-54.625
42
0.41421356237309503
10
107.01250000000002
20
-54.125000000000014
10
107.01250000000002
20
-41.125
42
0.41421356237310542
10
106.51250000000003
20
-40.624999999999993
10
93.512500000000003
20
-40.625000000000007
42
0.41421356237311585
0
LWPOLYLINE
5
139
100
AcDbEntity
8
0
100
AcDbPolyline
90
8
70
1
43
0.0
10
235.60000000000002
20
-35.075000000000003
10
235.60000000000002
20
-22.074999999999999
42
0.41421356237314444
10
235.10000000000002
20
-21.574999999999992
10
222.10000000000002
20
-21.575000000000006
42
0.41421356237312884
10
221.59999999999999
20
-22.074999999999999
10
221.59999999999999
20
-35.075000000000003
42
0.41421356237310025
10
222.10000000000002
20
-35.57500000000001
10
235.10000000000002
20
-35.575000000000017
42
0.41421356237309764
0
LWPOLYLINE
5
140
100
AcDbEntity
8
0
100
AcDbPolyline
90
8
70
1
43
0.0
10
131.61250000000001
20
-54.625000000000021
10
144.61250000000001
20
-54.625
42
0.41421356237306384
10
145.11250000000001
20
-54.125000000000014
10
145.11250000000001
20
-41.125
42
0.41421356237307422
10
144.61250000000001
20
-40.624999999999993
10
131.61250000000001
20
-40.625
42
0.41421356237308982
10
131.11250000000001
20
-41.125
10
131.11250000000001
20
-54.125000000000014
42
0.41421356237310025
0
LWPOLYLINE
5
141
100
AcDbEntity
8
0
100
AcDbPolyline
90
8
70
1
43
0.0
10
23.668749999999999
20
-41.125
42
0.41421356237310542
10
23.168749999999999
20
-40.625
10
10.168749999999999
20
-40.625
42
0.41421356237307555
10
9.6687499999999993
20
-41.125
10
9.6687500000000028
20
-54.125000000000014
42
0.41421356237310936
10
10.168749999999999
20
-54.625
10
23.168749999999999
20
-54.625
42
0.41421356237311063
10
23.668749999999999
20
-54.125000000000014
0
LWPOLYLINE
5
142
100
AcDbEntity
8
0
100
AcDbPolyline
90
8
70
1
43
0.0
10
57.793750000000017
20
-59.675000000000004
42
0.41421356237313145
10
57.29375000000001
20
-60.174999999999997
10
57.29375000000001
20
-73.174999999999983
42
0.41421356237308982
10
57.793750000000017
20
-73.674999999999983
10
70.793750000000003
20
-73.674999999999983
42
0.41421356237310542
10
71.293750000000003
20
-73.174999999999983
10
71.293750000000003
20
-60.174999999999997
42
0.41421356237310542
10
70.793750000000003
20
-59.675000000000004
0
LWPOLYLINE
5
143
100
AcDbEntity
8
0
100
AcDbPolyline
90
8
70
1
43
0.0
10
44.600000000000001
20
-73.674999999999983
10
31.600000000000001
20
-73.674999999999983
42
-0.41421356237309764
10
31.100000000000001
20
-73.174999999999983
10
31.099999999999998
20
-60.174999999999997
42
-0.41421356237309764
10
31.600000000000001
20
-59.675000000000004
10
44.600000000000001
20
-59.675000000000004
42
-0.41421356237310025
10
45.100000000000009
20
-60.174999999999997
10
45.100000000000009
20
-73.174999999999983
42
-0.41421356237310025
0
LWPOLYLINE
5
144
100
AcDbEntity
8
0
100
AcDbPolyline
90
8
70
1
43
0.0
10
91.131249999999994
20
-59.675000000000004
10
104.13125000000001
20
-59.675000000000011
42
-0.41421356237311585
10
104.63125000000004
20
-60.174999999999997
10
104.63125000000002
20
-73.174999999999983
42
-0.4142135623730534
10
104.13125000000001
20
-73.674999999999983
10
91.131249999999994
20
-73.674999999999997
42
-0.41421356237311585
10
90.631249999999994
20
-73.174999999999983
10
90.631249999999994
20
-60.174999999999997
42
-0.41421356237310542
0
LWPOLYLINE
5
145
100
AcDbEntity
8
0
100
AcDbPolyline
90
8
70
1
43
0.0
10
87.46250000000002
20
-54.625
42
0.41421356237309503
10
87.962500000000006
20
-54.125000000000014
10
87.962500000000006
20
-41.125
42
0.41421356237310542
10
87.46250000000002
20
-40.624999999999993
10
74.462500000000006
20
-40.625
42
0.4142135623730846
10
73.962500000000006
20
-41.125
10
73.962500000000006
20
-54.125000000000014
42
0.41421356237311063
10
74.462500000000006
20
-54.625
0
LWPOLYLINE
5
146
100
AcDbEntity
8
0
100
AcDbPolyline
90
8
70
1
43
0.0
10
55.412500000000016
20
-40.625
42
0.41421356237307944
10
54.912500000000009
20
-41.125
10
54.912500000000009
20
-54.125000000000014
42
0.41421356237309503
10
55.412500000000016
20
-54.625
10
68.412499999999994
20
-54.625
42
0.41421356237311063
10
68.912499999999994
20
-54.125000000000014
10
68.912499999999994
20
-41.125
42
0.41421356237309503
10
68.412499999999994
20
-40.625
0
LWPOLYLINE
5
147
100
AcDbEntity
8
0
100
AcDbPolyline
90
8
70
1
43
0.0
10
219.21875
20
-60.174999999999997
42
-0.41421356237314183
10
219.71875
20
-59.675000000000004
10
232.71875
20
-59.675000000000018
42
-0.41421356237310025
10
233.21875000000006
20
-60.174999999999997
10
233.21875000000006
20
-73.174999999999983
42
-0.41421356237310025
10
232.71875
20
-73.674999999999983
10
219.71875
20
-73.675000000000011
42
-0.41421356237310025
10
219.21875
20
-73.174999999999983
0
LWPOLYLINE
5
148
100
AcDbEntity
8
0
100
AcDbPolyline
90
8
70
1
43
0.0
10
239.86250000000001
20
-54.624999999999993
42
0.41421356237312101
10
240.36250000000001
20
-54.125000000000014
10
240.36250000000001
20
-41.125
42
0.41421356237314705
10
239.86250000000001
20
-40.624999999999993
10
226.86250000000001
20
-40.624999999999964
42
0.41421356237304818
10
226.36250000000004
20
-41.125
10
226.36250000000007
20
-54.125000000000014
42
0.41421356237308982
10
226.86250000000001
20
-54.625000000000021
0
LWPOLYLINE
5
149
100
AcDbEntity
8
0
100
AcDbPolyline
90
8
70
1
43
0.0
10
207.8125
20
-54.625000000000014
42
-0.414213562373069
10
207.31250000000003
20
-54.125000000000014
10
207.31250000000006
20
-41.125
42
-0.4142135623730846
10
207.8125
20
-40.625
10
220.81249999999997
20
-40.624999999999972
42
-0.41421356237310542
10
221.3125
20
-41.125
10
221.3125
20
-54.125000000000014
42
-0.41421356237316787
10
220.8125
20
-54.625
0
LWPOLYLINE
5
150
100
AcDbEntity
8
0
100
AcDbPolyline
90
8
70
1
43
0.0
10
35.862499999999997
20
-54.125000000000014
42
0.41421356237308204
10
36.362499999999997
20
-54.625
10
49.362500000000004
20
-54.625
42
0.41421356237311063
10
49.862499999999997
20
-54.125000000000014
10
49.862499999999997
20
-41.125
42
0.41421356237309503
10
49.362500000000004
20
-40.625
10
36.362499999999997
20
-40.625
42
0.4142135623730846
10
35.862500000000011
20
-41.125
0
LWPOLYLINE
5
151
100
AcDbEntity
8
0
100
AcDbPolyline
90
8
70
1
43
0.0
10
123.29949999999999
20
-74.675000000000026
10
129.04949999999999
20
-74.674999999999983
42
0.41421356237310025
10
129.54949999999999
20
-74.175000000000026
10
129.54949999999999
20
-61.174999999999997
42
0.41421356237310025
10
129.04949999999999
20
-60.67499999999999
10
123.29949999999999
20
-60.67499999999999
42
0.41421356237311585
10
122.79949999999999
20
-61.174999999999997
10
122.79949999999999
20
-74.175000000000026
42
0.41421356237308982
0
LWPOLYLINE
5
152
100
AcDbEntity
8
0
100
AcDbPolyline
90
8
70
1
43
0.0
10
147.1755
20
-60.675000000000011
42
0.41421356237310542
10
146.67550000000003
20
-61.174999999999997
10
146.6755
20
-74.175000000000026
42
0.414213562373069
10
147.1755
20
-74.675000000000026
10
152.9255
20
-74.674999999999983
42
0.41421356237310542
10
153.4255
20
-74.175000000000026
10
153.4255
20
-61.174999999999997
42
0.41421356237307944
10
152.9255
20
-60.67499999999999
0
LWPOLYLINE
5
153
100
AcDbEntity
8
0
100
AcDbPolyline
90
8
70
1
43
0.0
10
202.26249999999999
20
-73.174999999999983
10
202.26249999999999
20
-60.174999999999997
42
0.41421356237314183
10
201.76249999999999
20
-59.675000000000004
10
188.76249999999999
20
-59.675000000000004
42
0.41421356237313145
10
188.26249999999999
20
-60.174999999999997
10
188.26249999999999
20
-73.174999999999983
42
0.41421356237307944
10
188.76249999999999
20
-73.67500000000004
10
201.76249999999999
20
-73.675000000000011
42
0.41421356237310025
0
LWPOLYLINE
5
154
100
AcDbEntity
8
0
100
AcDbPolyline
90
8
70
1
43
0.0
10
162.06874999999999
20
-73.174999999999983
42
0.4142135623730534
10
162.56875000000005
20
-73.67500000000004
10
175.56875000000005
20
-73.674999999999983
42
0.41421356237313145
10
176.06875000000005
20
-73.174999999999983
10
176.06874999999999
20
-60.174999999999997
42
0.41421356237313667
10
175.56875000000005
20
-59.675000000000004
10
162.56875000000005
20
-59.675000000000018
42
0.41421356237310025
10
162.06874999999999
20
-60.174999999999997
0
ENDSEC
0
SECTION
2
OBJECTS
0
DICTIONARY
5
C
100
AcDbDictionary
3
ACAD_GROUP
350
D
3
ACAD_MLINESTYLE
350
17
0
DICTIONARY
5
D
100
AcDbDictionary
0
DICTIONARY
5
1A
330
C
100
AcDbDictionary
0
DICTIONARY
5
17
100
AcDbDictionary
0
ENDSEC
0
EOF
