0
SECTION
2
HEADER
9
$INSUNITS
70
4
9
$ACADVER
1
AC1014
9
$HANDSEED
5
FFFF
0
ENDSEC
0
SECTION
2
TABLES
0
TABLE
2
VPORT
5
8
100
AcDbSymbolTable
0
ENDTAB
0
TABLE
2
LTYPE
5
5
100
AcDbSymbolTable
0
LTYPE
5
14
100
AcDbSymbolTableRecord
100
AcDbLinetypeTableRecord
2
BYBLOCK
70
0
0
LTYPE
5
15
100
AcDbSymbolTableRecord
100
AcDbLinetypeTableRecord
2
BYLAYER
70
0
0
ENDTAB
0
TABLE
2
LAYER
5
2
100
AcDbSymbolTable
70
2
0
LAYER
5
50
100
AcDbSymbolTableRecord
100
AcDbLayerTableRecord
2
0
70
0
6
CONTINUOUS
0
ENDTAB
0
TABLE
2
STYLE
5
3
100
AcDbSymbolTable
70
1
0
STYLE
5
11
100
AcDbSymbolTableRecord
100
AcDbTextStyleTableRecord
2
STANDARD
70
0
0
ENDTAB
0
TABLE
2
VIEW
5
6
100
AcDbSymbolTable
70
0
0
ENDTAB
0
TABLE
2
UCS
5
7
100
AcDbSymbolTable
70
0
0
ENDTAB
0
TABLE
2
APPID
5
9
100
AcDbSymbolTable
70
2
0
APPID
5
12
100
AcDbSymbolTableRecord
100
AcDbRegAppTableRecord
2
ACAD
70
0
0
ENDTAB
0
TABLE
2
DIMSTYLE
5
A
100
AcDbSymbolTable
70
1
0
ENDTAB
0
TABLE
2
BLOCK_RECORD
5
1
100
AcDbSymbolTable
70
1
0
BLOCK_RECORD
5
1F
100
AcDbSymbolTableRecord
100
AcDbBlockTableRecord
2
*MODEL_SPACE
0
BLOCK_RECORD
5
1B
100
AcDbSymbolTableRecord
100
AcDbBlockTableRecord
2
*PAPER_SPACE
0
ENDTAB
0
ENDSEC
0
SECTION
2
BLOCKS
0
BLOCK
5
20
100
AcDbEntity
100
AcDbBlockBegin
2
*MODEL_SPACE
0
ENDBLK
5
21
100
AcDbEntity
100
AcDbBlockEnd
0
BLOCK
5
1C
100
AcDbEntity
100
AcDbBlockBegin
2
*PAPER_SPACE
0
ENDBLK
5
1D
100
AcDbEntity
100
AcDbBlockEnd
0
ENDSEC
0
SECTION
2
ENTITIES
0
LINE
5
100
100
AcDbEntity
8
0
100
AcDbLine
10
-61.054329275339029
20
27.082583469374178
30
0
11
58.049550349344472
21
27.082583469374178
31
0
0
LINE
5
101
100
AcDbEntity
8
0
100
AcDbLine
10
59.976811255761724
20
25.617060221530682
30
0
11
68.019223033497113
21
-3.3829397784693214
31
0
0
LINE
5
102
100
AcDbEntity
8
0
100
AcDbLine
10
68.019223033497113
20
-3.3829397784693214
30
0
11
77.457827912131691
21
-5.4107093845502341
31
0
0
LINE
5
103
100
AcDbEntity
8
0
100
AcDbLine
10
75.446702035255811
20
-28.06398091135457
30
0
11
63.874194468566188
21
-29.767700918936978
31
0
0
LINE
5
104
100
AcDbEntity
8
0
100
AcDbLine
10
54.981780855011394
20
-29.476593438839025
30
0
11
-59.483055821678178
21
-4.8852136997196425
31
0
0
LINE
5
105
100
AcDbEntity
8
0
100
AcDbLine
10
-68.256932554343109
20
-1.1383124638313558
30
0
11
-77.978307036917101
21
5.4497408634815239
31
0
0
LINE
5
106
100
AcDbEntity
8
0
100
AcDbLine
10
-70.892614878949033
20
26.460581214905183
30
0
11
-63.160782917710677
21
24.799491037710197
31
0
0
LINE
5
107
100
AcDbEntity
8
0
100
AcDbLine
10
-63.160782917710677
20
24.799491037710197
30
0
11
-63.009712636001169
21
25.502673832088906
31
0
0
LINE
5
108
100
AcDbEntity
8
0
100
AcDbLine
10
-63.160782917710677
20
24.799491037710197
30
0
11
68.019223033497113
21
-3.3829397784693214
31
0
0
LINE
5
109
100
AcDbEntity
8
0
100
AcDbLine
10
-62.670288241820401
20
27.082583469374171
30
0
11
-82.604318498850688
21
27.08258346937415
31
0
0
LINE
5
110
100
AcDbEntity
8
0
100
AcDbLine
10
-70.892614878949033
20
26.460581214905183
30
0
11
-73.787832114649333
21
27.082583469374161
31
0
0
SPLINE
5
111
100
AcDbEntity
8
0
100
AcDbSpline
70
12
71
2
41
1
41
1
41
1
72
6
73
3
74
0
42
0.000000001
43
0.0000000001
44
0.0000000001
40
0
40
0
40
0
40
0.47602213053754577
40
0.47602213053754577
40
0.47602213053754577
10
-70.892614878949033
20
26.460581214905183
30
0
10
-74.522119440102244
20
27.240336181753975
30
0
10
-75.134674384896329
20
25.252282190257613
30
0
0
LINE
5
112
100
AcDbEntity
8
0
100
AcDbLine
10
-75.134674384896329
20
25.252282190257613
30
0
11
-77.84741828796426
21
16.448041215246324
31
0
0
SPLINE
5
113
100
AcDbEntity
8
0
100
AcDbSpline
70
12
71
2
41
1
41
1
41
1
72
6
73
3
74
0
42
0.000000001
43
0.0000000001
44
0.0000000001
40
0
40
0
40
0
40
0.54523573449237472
40
0.54523573449237472
40
0.54523573449237472
10
77.457827912131691
20
-5.4107093845502341
30
0
10
81.462483638048994
20
-6.2710610221333205
30
0
10
81.143805979392752
20
-8.820488201987768
30
0
0
LINE
5
114
100
AcDbEntity
8
0
100
AcDbLine
10
81.143805979392752
20
-8.820488201987768
30
0
11
80.061765905369896
21
-17.476828863073674
31
0
0
ARC
5
115
100
AcDbEntity
8
0
100
AcDbCircle
10
58.049550349344472
20
25.082583469374168
30
0
40
2.0000000000000107
210
0
220
-0
230
1
100
AcDbArc
50
15.499999999999961
51
90
0
ARC
5
116
100
AcDbEntity
8
0
100
AcDbCircle
10
-61.054329275339029
20
25.082583469374132
30
0
40
2.0000000000000462
210
0
220
-0
230
1
100
AcDbArc
50
90
51
167.87500000000006
0
LINE
5
117
100
AcDbEntity
8
0
100
AcDbLine
10
-62.670288241820401
20
27.082583469374171
30
0
11
-61.054329275339029
21
27.082583469374178
31
0
0
LINE
5
118
100
AcDbEntity
8
0
100
AcDbLine
10
80.061765905369896
20
-17.476828863073674
30
0
11
-77.84741828796426
21
16.448041215246324
31
0
0
ARC
5
119
100
AcDbEntity
8
0
100
AcDbCircle
10
75.082573627293783
20
-25.590640962517114
30
0
40
2.5000000000000484
210
0
220
0
230
1
100
AcDbArc
50
278.37500000000006
51
342.875
0
ARC
5
120
100
AcDbEntity
8
0
100
AcDbCircle
10
-76.575806410298043
20
7.5192799406598274
30
0
40
2.4999999999269749
210
0
220
0
230
1
100
AcDbArc
50
172.87499999999997
51
235.87499999999994
0
LINE
5
121
100
AcDbEntity
8
0
100
AcDbLine
10
70.952298074490244
20
-4.013075322541467
30
0
11
72.405609399104648
21
7.6134422293500714
31
0
0
LINE
5
122
100
AcDbEntity
8
0
100
AcDbLine
10
70.450027572233196
20
10.367757558803888
30
0
11
63.810218610264535
21
11.794239859566479
31
0
0
ARC
5
123
100
AcDbEntity
8
0
100
AcDbCircle
10
69.924914618839736
20
7.9235283579762816
30
0
40
2.4999999999999871
210
0
220
0
230
1
100
AcDbArc
50
-7.1249999999999387
51
77.874999999999872
0
ARC
5
124
100
AcDbEntity
8
0
100
AcDbCircle
10
60.232910388945967
20
-5.0343014305628744
30
0
40
25
210
0
220
0
230
1
100
AcDbArc
50
257.875
51
278.37500000000006
0
ARC
5
125
100
AcDbEntity
8
0
100
AcDbCircle
10
-54.231926287744052
20
19.557078308554438
30
0
40
24.999999999997875
210
0
220
0
230
1
100
AcDbArc
50
235.87499999999994
51
257.875
0
LINE
5
126
100
AcDbEntity
8
0
100
AcDbLine
10
80.061765905369896
20
-17.476828863073674
30
0
11
79.746698133333865
21
-18.943366383570041
31
0
0
LINE
5
127
100
AcDbEntity
8
0
100
AcDbLine
10
79.746698133333865
20
-18.943366383570041
30
0
11
77.471735188599894
21
-26.326784314030629
31
0
0
LINE
5
128
100
AcDbEntity
8
0
100
AcDbLine
10
-77.84741828796426
20
16.448041215246324
30
0
11
-78.162486060000333
21
14.981503694749755
31
0
0
LINE
5
129
100
AcDbEntity
8
0
100
AcDbLine
10
-78.162486060000333
20
14.981503694749755
30
0
11
-79.056501190490494
21
7.8293660692769853
31
0
0
ENDSEC
0
SECTION
2
OBJECTS
0
DICTIONARY
5
C
100
AcDbDictionary
3
ACAD_GROUP
350
D
3
ACAD_MLINESTYLE
350
17
0
DICTIONARY
5
D
100
AcDbDictionary
0
DICTIONARY
5
1A
330
C
100
AcDbDictionary
0
DICTIONARY
5
17
100
AcDbDictionary
0
ENDSEC
0
EOF
